<?xml version="1.0" encoding="UTF-8"?>
<!--
  Ambrosia OG share template 1200x630.

  Implementazione: embed dei path canonici di bevidadiologo.svg (viewBox
  400x225), scalati 2.8x per fit verticale, con 40px padding orizzontale
  (400×2.8=1120 → (1200-1120)/2 = 40 per lato). Layout perfetto come il
  brand asset (BEVI DA DIO in Vina Sans-as-paths, AMBROSIA wordmark,
  circle + A glyph al top).

  Brand colors: violet #4629B7, peach #F8BCB4.
  Da usare per: hub, winelist, pAIrbuilder. NON experience.
-->
<svg xmlns="http://www.w3.org/2000/svg" width="1200" height="630" viewBox="0 0 1200 630">
  <!-- Sfondo violet brand 1200x630 -->
  <rect width="1200" height="630" fill="#4629B7"/>

  <!-- Brand asset (bevidadiologo.svg, vb 400x225) scalato 2.8x e centrato.
       Tutti i path sono dal file originale, peach #F8BCB4 su violet.
       Lo rect di sfondo originale è omesso (già coperto sopra). -->
  <g transform="translate(40 0) scale(2.8)">
    <!-- Circle outline (cerchio AV) -->
    <path d="M196.883 10.6464C192.638 11.0959 188.263 12.5343 184.575 14.6818C183.472 15.331 181.265 16.8792 180.378 17.6384C176.879 20.6149 174.135 24.1209 172.192 28.0764C170.551 31.4225 169.42 35.1881 168.958 38.8141C168.759 40.3823 168.684 44.3076 168.816 45.9559C169.344 52.3086 171.4 58.0819 174.861 62.9861C179.699 69.8283 186.942 74.3931 195.223 75.8213C197.128 76.1409 198.778 76.251 200.938 76.1908C203.88 76.1012 206.172 75.7116 208.982 74.8126C217.253 72.1755 224.204 66.0327 227.957 58.0418C228.825 56.1938 229.146 55.4048 229.627 53.8965C230.39 51.5094 230.956 48.6927 231.173 46.1257C231.333 44.2478 231.23 40.1826 230.984 38.4144C230.532 35.238 229.476 31.6922 228.155 28.8754C226.599 25.5792 224.845 22.9922 222.308 20.2454C219.818 17.5685 217.612 15.8405 214.678 14.2623C210.85 12.2047 206.851 10.9561 202.918 10.5965C201.419 10.4667 198.401 10.4866 196.883 10.6464ZM202.975 13.3933C210.359 14.1724 217.159 17.8781 221.837 23.6814C227.335 30.5036 229.627 39.4235 228.183 48.4428C227.373 53.5572 225.468 58.0819 222.431 62.1373C221.573 63.286 219.262 65.7131 218.102 66.6818C213.783 70.3279 208.652 72.6052 203.239 73.2645C201.617 73.4642 198.401 73.474 196.835 73.2743C187.989 72.1755 179.982 66.8716 175.568 59.1807C172.9 54.5459 171.56 49.7015 171.4 44.1079C171.193 36.9563 173.362 29.9143 177.417 24.5804C182.123 18.3775 188.97 14.4321 196.694 13.4532C198.043 13.2834 201.607 13.2534 202.975 13.3933Z" fill="#F8BCB4"/>
    <!-- A glyph dentro al cerchio -->
    <path d="M197.922 19.3663C197.802 19.5387 197.637 19.9139 197.568 20.218C197.49 20.5121 197.214 21.3638 196.954 22.1142C195.917 25.0445 192.744 34.1399 191.992 36.3299C191.024 39.1689 191.042 39.1285 190.912 39.1285C190.852 39.1285 190.644 38.8447 190.454 38.4896C189.598 36.9382 187.921 35.0725 186.719 34.3222C185.414 33.5112 183.824 33.1361 182.518 33.3489C180.504 33.6633 178.897 34.5758 177.66 36.1374C176.908 37.0801 176.571 37.8711 176.562 38.7432C176.562 39.321 176.588 39.453 176.779 39.6862C177.038 40.0206 177.453 40.2437 177.825 40.2437C178.343 40.2437 178.663 39.9599 179.164 39.0677C179.856 37.8409 180.591 37.2122 181.775 36.8469C183.072 36.4616 184.256 36.5733 185.311 37.1816C186.27 37.7292 187.61 39.4428 188.345 41.055C188.716 41.866 190.229 46.1654 191.906 51.1438C192.468 52.8168 193.756 56.5079 194.759 59.3571C195.77 62.1961 196.729 64.9744 196.903 65.5321C197.404 67.1443 197.776 67.9451 198.138 68.1681C198.441 68.361 198.519 68.361 199.867 68.2394C200.645 68.1681 201.432 68.067 201.605 68.0161C202.046 67.8843 202.271 67.499 202.703 66.0997C202.902 65.4612 203.455 63.8388 203.922 62.5003C204.397 61.1617 205.011 59.3771 205.296 58.5457C205.581 57.7042 206.247 55.7878 206.774 54.287C207.302 52.7764 208.01 50.7382 208.356 49.7547C208.702 48.7611 209.022 47.9501 209.065 47.9501C209.117 47.9501 209.385 48.3252 209.67 48.7713C210.621 50.2921 211.935 51.5797 213.292 52.3099C214.416 52.9183 215.021 53.0704 216.413 53.0602C217.553 53.0602 217.675 53.0401 218.461 52.7258C219.913 52.1477 221.504 50.9004 222.317 49.7143C222.999 48.7105 223.388 47.7471 223.432 46.9361C223.475 46.1043 223.285 45.699 222.714 45.3948C221.979 45.0197 221.426 45.3337 220.864 46.4391C220.372 47.4327 219.179 48.8218 218.504 49.197C216.628 50.2517 214.519 49.7853 212.894 47.9701C212.194 47.1893 211.494 46.0538 211.027 44.9586C210.56 43.8536 208.373 37.5465 206.489 31.8279C205.184 27.8938 203.679 23.4424 203.368 22.611C203.195 22.1446 202.919 21.3638 202.755 20.8771C202.132 18.981 202.245 19.052 199.911 19.052H198.147L197.922 19.3663ZM200.326 25.0141C200.507 25.5008 201.078 27.0319 201.588 28.4311C202.098 29.8203 202.737 31.5237 203.005 32.2132C203.273 32.9029 203.489 33.5214 203.489 33.5923C203.489 33.6935 203.169 33.7444 202.305 33.7848C200.611 33.8863 196.505 33.8761 196.453 33.7746C196.41 33.6935 197.317 31.0168 198.666 27.2651C198.977 26.4032 199.358 25.3386 199.513 24.9025C199.66 24.4767 199.833 24.1218 199.885 24.1218C199.945 24.1218 200.135 24.5274 200.326 25.0141ZM205.737 40.335C206.256 41.8562 206.705 43.1842 206.731 43.2959C206.766 43.4174 206.42 44.5533 205.78 46.4594C205.218 48.0818 204.734 49.4709 204.691 49.5215C204.613 49.6434 195.018 49.6128 194.914 49.4913C194.837 49.4 193.116 44.4314 193.056 44.1171C193.021 43.965 193.367 42.8091 194.076 40.7101L195.139 37.5364L199.971 37.5567L204.795 37.5771L205.737 40.335ZM203.169 53.1413C203.256 53.1413 203.342 53.1922 203.368 53.2632C203.455 53.5164 200.057 63.3622 199.893 63.3622C199.833 63.3622 199.625 62.9161 199.427 62.3686C199.219 61.8312 198.381 59.5903 197.559 57.3898C196.729 55.1897 196.055 53.3036 196.055 53.1922C196.055 52.9994 196.116 52.9994 199.539 53.0704C201.449 53.1213 203.083 53.1515 203.169 53.1413Z" fill="#F8BCB4"/>
    <!-- AMBROSIA wordmark (path dal file canonico, Vina Sans-as-paths) -->
    <path d="M11.4893 187.889L22.1143 95.9152H44.6144L55.2394 187.889H37.7394L36.6144 170.939H29.9893L29.1143 187.889H11.4893ZM30.9893 151.231H35.7394L34.4894 122.193H32.3644L30.9893 151.231ZM60.3175 187.889V95.9152H81.6925L87.3175 136.778H88.0675L93.4425 95.9152H114.943V187.889H98.6925V147.026H97.9425L93.0675 187.889H82.1925L77.3175 147.026H76.5675V187.889H60.3175ZM122.451 187.889V95.9152H144.326C148.409 95.9152 152.076 96.9227 155.326 98.9372C158.659 100.864 161.284 103.492 163.201 106.821C165.201 110.149 166.201 113.959 166.201 118.252C166.201 120.529 165.743 122.894 164.826 125.347C163.909 127.712 162.618 129.814 160.951 131.654C159.284 133.493 157.284 134.763 154.951 135.464V136.778C158.368 138.179 161.076 140.457 163.076 143.61C165.159 146.763 166.201 150.005 166.201 153.333V164.895C166.201 169.188 165.201 173.085 163.201 176.589C161.284 180.005 158.659 182.764 155.326 184.867C152.076 186.881 148.409 187.889 144.326 187.889H122.451ZM141.076 124.69H142.576C143.909 124.69 145.034 124.164 145.951 123.113C146.951 121.974 147.451 120.573 147.451 118.909C147.451 117.244 146.951 115.843 145.951 114.704C145.034 113.565 143.909 112.996 142.576 112.996H141.076V124.69ZM141.076 170.939H141.951C143.451 170.939 144.743 170.063 145.826 168.312C146.909 166.56 147.451 164.458 147.451 162.005V155.961C147.451 153.421 146.909 151.318 145.826 149.654C144.743 147.902 143.451 147.026 141.951 147.026H141.076V170.939ZM172.5 187.889V95.9152H191.625C196.125 95.9152 200.25 97.0977 204 99.4628C207.75 101.74 210.708 104.85 212.875 108.792C215.125 112.646 216.25 116.981 216.25 121.799V137.172C216.25 139.449 215.708 142.428 214.625 146.106C213.542 149.698 211.5 152.939 208.5 155.829V157.8L216.25 187.889H197.5L192.25 162.53H191.125V187.889H172.5ZM191.125 145.581H192.125C193.625 145.581 194.875 145.143 195.875 144.267C196.958 143.304 197.5 140.939 197.5 137.172V121.405C197.5 117.726 196.958 115.405 195.875 114.441C194.875 113.478 193.625 112.996 192.125 112.996H191.125V145.581ZM243.203 189.203C239.203 189.203 235.537 188.195 232.203 186.181C228.87 184.078 226.203 181.319 224.203 177.903C222.287 174.399 221.328 170.501 221.328 166.209V117.595C221.328 113.302 222.287 109.448 224.203 106.032C226.203 102.528 228.87 99.7693 232.203 97.7547C235.537 95.6525 239.203 94.6013 243.203 94.6013C247.203 94.6013 250.87 95.6525 254.203 97.7547C257.537 99.7693 260.162 102.528 262.078 106.032C264.078 109.448 265.078 113.302 265.078 117.595V166.209C265.078 170.501 264.078 174.399 262.078 177.903C260.162 181.319 257.537 184.078 254.203 186.181C250.87 188.195 247.203 189.203 243.203 189.203ZM243.203 171.859C244.12 171.859 244.87 171.553 245.453 170.939C246.037 170.239 246.328 169.45 246.328 168.574V115.098C246.328 114.135 246.037 113.347 245.453 112.733C244.87 112.033 244.12 111.682 243.203 111.682C242.287 111.682 241.495 112.033 240.828 112.733C240.245 113.347 239.953 114.135 239.953 115.098V168.574C239.953 169.45 240.245 170.239 240.828 170.939C241.495 171.553 242.287 171.859 243.203 171.859ZM292.153 189.203C288.153 189.203 284.487 188.195 281.153 186.181C277.82 184.078 275.153 181.319 273.153 177.903C271.237 174.399 270.278 170.501 270.278 166.209V155.698H288.903V166.866C288.903 167.742 289.195 168.574 289.778 169.363C290.445 170.063 291.237 170.414 292.153 170.414C293.07 170.414 293.862 170.063 294.528 169.363C295.195 168.574 295.528 167.742 295.528 166.866C295.528 166.078 295.445 165.421 295.278 164.895C295.112 164.282 294.737 163.494 294.153 162.53L279.153 136.778C278.07 134.851 276.82 132.836 275.403 130.734C273.987 128.544 272.778 126.398 271.778 124.296C270.778 122.106 270.278 120.047 270.278 118.12V117.595C270.278 113.302 271.237 109.448 273.153 106.032C275.153 102.528 277.82 99.7693 281.153 97.7547C284.487 95.6525 288.153 94.6013 292.153 94.6013C296.237 94.6013 299.903 95.6525 303.153 97.7547C306.487 99.7693 309.112 102.528 311.028 106.032C313.028 109.448 314.028 113.302 314.028 117.595V126.923H295.528V116.806C295.528 115.843 295.195 115.011 294.528 114.31C293.862 113.609 293.07 113.259 292.153 113.259C291.32 113.259 290.57 113.609 289.903 114.31C289.237 115.011 288.903 115.843 288.903 116.806C288.903 117.42 288.987 117.945 289.153 118.383C289.403 118.734 289.737 119.303 290.153 120.091L305.653 145.975C307.57 149.216 309.445 152.457 311.278 155.698C313.112 158.851 314.028 162.18 314.028 165.684V166.209C314.028 170.501 313.028 174.399 311.028 177.903C309.112 181.319 306.487 184.078 303.153 186.181C299.903 188.195 296.237 189.203 292.153 189.203ZM318.375 187.889V95.9152H337.25V187.889H318.375ZM344.741 187.889L355.366 95.9152H377.866L388.491 187.889H370.991L369.866 170.939H363.241L362.366 187.889H344.741ZM364.241 151.231H368.991L367.741 122.193H365.616L364.241 151.231Z" fill="#F8BCB4"/>
    <!-- BEVI (Vina Sans-as-paths) — sotto AMBROSIA, allineato a sinistra -->
    <path d="M10.8301 213.838V195.772H15.4883C16.7383 195.772 17.6465 196.094 18.2129 196.737C18.7858 197.374 19.0723 198.427 19.0723 199.899V200.689C19.0723 201.538 18.9258 202.225 18.6328 202.752C18.3463 203.279 17.9069 203.625 17.3144 203.789C18.0892 203.994 18.6068 204.477 18.8672 205.236C19.1341 205.989 19.2676 206.910 19.2676 207.998C19.2676 209.168 19.1634 210.191 18.9551 211.067C18.7468 211.943 18.3691 212.624 17.8223 213.110C17.2754 213.595 16.4974 213.838 15.4883 213.838H10.8301ZM14.1894 202.578H14.8926C15.2116 202.578 15.4167 202.448 15.5078 202.188C15.599 201.928 15.6445 201.616 15.6445 201.254V199.437C15.6445 198.855 15.4004 198.564 14.9121 198.564H14.1894V202.578ZM14.5313 210.656C15.4232 210.656 15.8691 210.211 15.8691 209.322V207.064C15.8691 206.550 15.7943 206.146 15.6445 205.852C15.5013 205.551 15.2279 205.401 14.8242 205.401H14.1894V210.636C14.3327 210.650 14.4466 210.656 14.5313 210.656ZM20.4004 213.838V195.772H27.2754V199.262H23.8965V202.783H27.1387V206.181H23.8965V210.317H27.5V213.838H20.4004ZM30.2246 213.838L28.1055 195.762H31.3769L32.6369 208.059L33.7597 195.762H37.0312L34.9122 213.838H30.2246ZM37.8809 213.838V195.772H41.2012V213.838H37.8809Z" fill="#F8BCB4"/>
    <!-- DA — centro -->
    <path d="M190.82 213.838V195.772H195.547C196.784 195.772 197.715 196.135 198.34 196.860C198.965 197.579 199.277 198.633 199.277 200.022V208.480C199.277 210.191 198.991 211.512 198.418 212.442C197.852 213.373 196.856 213.838 195.430 213.838H190.820ZM194.277 210.646H194.873C195.505 210.646 195.820 210.324 195.820 209.681V200.361C195.820 199.758 195.742 199.372 195.586 199.201C195.436 199.023 195.127 198.934 194.658 198.934H194.277V210.646ZM200.215 213.838L201.875 195.772H207.705L209.336 213.838H206.084L205.840 210.923H203.769L203.555 213.838H200.215ZM204.014 208.039H205.576L204.824 198.852H204.668L204.014 208.039Z" fill="#F8BCB4"/>
    <!-- DIO — destra -->
    <path d="M366.512 213.838V195.772H371.241C372.478 195.772 373.409 196.135 374.034 196.860C374.659 197.579 374.972 198.633 374.972 200.022V208.480C374.972 210.191 374.684 211.512 374.113 212.442C373.544 213.373 372.550 213.838 371.122 213.838H366.512ZM369.972 210.646H370.566C371.197 210.646 371.512 210.324 371.512 209.681V200.361C371.512 199.758 371.434 199.372 371.278 199.201C371.128 199.023 370.819 198.934 370.350 198.934H369.972V210.646ZM376.222 213.838V195.772H379.541V213.838H376.222ZM385.009 214.003C383.637 214.003 382.584 213.568 381.856 212.699C381.131 211.823 380.772 210.561 380.772 208.911V200.330C380.772 198.783 381.128 197.610 381.847 196.809C382.569 196.008 383.622 195.608 385.009 195.608C386.397 195.608 387.447 196.008 388.162 196.809C388.887 197.610 389.247 198.783 389.247 200.330V208.911C389.247 210.561 388.884 211.823 388.153 212.699C387.431 213.568 386.384 214.003 385.009 214.003ZM385.037 210.677C385.559 210.677 385.819 210.146 385.819 209.086V200.268C385.819 199.379 385.566 198.934 385.059 198.934C384.484 198.934 384.200 199.389 384.200 200.299V209.106C384.200 209.667 384.266 210.071 384.394 210.317C384.525 210.557 384.741 210.677 385.037 210.677Z" fill="#F8BCB4"/>
  </g>
</svg>
