<svg xmlns="http://www.w3.org/2000/svg" viewBox="0 0 200 200" width="200" height="200">
  <!-- Ambrosia favicon — cerchio viola brand + glyph A (fonte: Downloads/logo A.svg).
       Sostituisce la versione rounded-square (rx=46) con il cerchio vero (28 mag 2026). -->
  <circle cx="100" cy="100" r="100" fill="#4629B7"/>
  <g transform="translate(28 28) scale(0.72)">
    <path d="M90.0237 0.411514C76.4432 1.77991 62.4402 6.15874 50.6403 12.6966C47.1093 14.6731 40.0475 19.3864 37.2107 21.6975C26.0143 30.7592 17.2323 41.4326 11.0154 53.4744C5.7643 63.6613 2.14283 75.1253 0.664068 86.1636C0.0303114 90.9377 -0.21112 102.888 0.211385 107.906C1.9014 127.246 8.48039 144.822 19.556 159.752C35.0378 180.582 58.2152 194.479 84.7122 198.827C90.8083 199.8 96.0896 200.135 103.001 199.952C112.416 199.679 119.75 198.493 128.743 195.756C155.21 187.728 177.452 169.027 189.463 144.7C192.24 139.074 193.266 136.672 194.805 132.08C197.249 124.813 199.06 116.238 199.754 108.423C200.267 102.706 199.935 90.3296 199.15 84.9473C197.702 75.2773 194.322 64.4823 190.097 55.9071C185.117 45.8723 179.504 37.9965 171.386 29.6341C163.419 21.4846 156.357 16.224 146.971 11.4194C134.719 5.15526 121.923 1.35419 109.338 0.259476C104.54 -0.135834 94.8825 -0.0750122 90.0237 0.411514ZM109.519 8.77386C133.149 11.1457 154.908 22.4273 169.877 40.0947C187.471 60.8637 194.805 88.0185 190.187 115.477C187.592 131.047 181.496 144.822 171.778 157.168C169.032 160.665 161.638 168.054 157.926 171.003C144.104 182.103 127.687 189.036 110.364 191.043C105.173 191.651 94.8825 191.681 89.8728 191.073C61.565 187.728 35.9432 171.581 21.8195 148.167C13.2788 134.057 8.99343 119.309 8.48039 102.28C7.81646 80.5076 14.7576 59.0696 27.7345 42.8314C42.7938 23.9477 64.7036 11.9364 89.4201 8.95631C93.7357 8.43938 105.143 8.34814 109.519 8.77386Z" fill="#F8BCB4"/>
    <path d="M93.3518 26.958C92.9645 27.4827 92.439 28.6249 92.2177 29.5509C91.9687 30.4461 91.0835 33.0391 90.2537 35.3234C86.9343 44.2444 76.7825 71.9335 74.3759 78.6011C71.2778 87.2443 71.3332 87.1209 70.9182 87.1209C70.7246 87.1209 70.0607 86.2565 69.4522 85.1761C66.7137 80.4532 61.3473 74.7734 57.5024 72.4891C53.3255 70.0197 48.2357 68.8775 44.0588 69.5258C37.6137 70.4827 32.4686 73.2609 28.513 78.0146C26.1065 80.8854 25.0277 83.2932 25 85.9479C25 87.7074 25.083 88.1087 25.6915 88.8186C26.5214 89.8373 27.8491 90.5164 29.0386 90.5164C30.6983 90.5164 31.7218 89.6521 33.3261 86.9356C35.5391 83.2005 37.8903 81.2867 41.6799 80.1754C45.8292 79.0024 49.6188 79.342 52.9935 81.1941C56.064 82.861 60.3515 88.0778 62.7027 92.9859C63.8922 95.4554 68.733 108.544 74.0993 123.7C75.8973 128.793 80.0189 140.03 83.2276 148.704C86.4641 157.347 89.5345 165.805 90.0877 167.503C91.6921 172.411 92.8815 174.849 94.0433 175.528C95.0115 176.115 95.2604 176.115 99.5756 175.745C102.065 175.528 104.582 175.22 105.136 175.065C106.546 174.664 107.266 173.491 108.649 169.231C109.285 167.287 111.055 162.348 112.549 158.273C114.07 154.198 116.034 148.765 116.947 146.234C117.86 143.672 119.99 137.838 121.677 133.269C123.365 128.67 125.633 122.465 126.739 119.471C127.846 116.446 128.869 113.977 129.008 113.977C129.174 113.977 130.031 115.119 130.944 116.477C133.987 121.107 138.191 125.027 142.534 127.25C146.13 129.102 148.066 129.565 152.52 129.534C156.171 129.534 156.559 129.473 159.076 128.516C163.723 126.756 168.813 122.959 171.413 119.348C173.598 116.292 174.843 113.359 174.981 110.89C175.119 108.358 174.511 107.124 172.685 106.198C170.334 105.056 168.564 106.012 166.766 109.377C165.189 112.402 161.372 116.631 159.214 117.773C153.211 120.984 146.462 119.564 141.262 114.038C139.021 111.661 136.78 108.204 135.287 104.87C133.793 101.506 126.795 82.3054 120.764 64.8955C116.588 52.9185 111.774 39.3671 110.779 36.8359C110.225 35.416 109.34 33.0391 108.815 31.5574C106.823 25.785 107.183 26.0011 99.714 26.0011H94.071L93.3518 26.958ZM101.042 44.1518C101.623 45.6335 103.448 50.2946 105.08 54.5545C106.712 58.7835 108.759 63.9694 109.617 66.0685C110.474 68.1675 111.166 70.0505 111.166 70.2666C111.166 70.5753 110.142 70.7296 107.376 70.8531C101.955 71.1618 88.8153 71.1309 88.6493 70.8222C88.511 70.5753 91.4155 62.426 95.7307 51.0046C96.7265 48.3808 97.9436 45.1396 98.4415 43.8122C98.9118 42.5157 99.465 41.4353 99.631 41.4353C99.8246 41.4353 100.433 42.6701 101.042 44.1518ZM118.358 90.7942C120.018 95.4245 121.456 99.4683 121.539 99.8078C121.65 100.178 120.543 103.636 118.496 109.439C116.698 114.378 115.149 118.607 115.011 118.761C114.762 119.132 84.0575 119.039 83.7256 118.669C83.4766 118.391 77.9719 103.265 77.7783 102.308C77.6677 101.845 78.7741 98.3262 81.0424 91.9364L84.4448 82.2745L99.9076 82.3362L115.343 82.398L118.358 90.7942ZM110.142 129.781C110.419 129.781 110.696 129.936 110.779 130.152C111.055 130.923 100.184 160.897 99.6586 160.897C99.465 160.897 98.8011 159.539 98.1649 157.872C97.501 156.236 94.8179 149.414 92.19 142.715C89.5345 136.017 87.3769 130.275 87.3769 129.936C87.3769 129.349 87.5705 129.349 98.5245 129.565C104.638 129.72 109.866 129.812 110.142 129.781Z" fill="#F8BCB4"/>
  </g>
</svg>
