<svg width="547" height="354" viewBox="0 0 547 354" fill="none" xmlns="http://www.w3.org/2000/svg">
<path d="M264.521 0.370357C252.299 1.6019 239.696 5.54285 229.076 11.4269C225.898 13.2058 219.543 17.4478 216.99 19.5277C206.913 27.6833 199.009 37.2894 193.414 48.127C188.688 57.2951 185.429 67.6128 184.098 77.5472C183.527 81.844 183.31 92.5995 183.69 97.1151C185.211 114.521 191.132 130.34 201.1 143.777C215.034 162.524 235.894 175.031 259.741 178.945C265.228 179.82 269.981 180.121 276.201 179.957C284.675 179.711 291.275 178.643 299.369 176.18C323.189 168.955 343.207 152.124 354.017 130.23C356.516 125.167 357.439 123.005 358.824 118.872C361.024 112.332 362.654 104.614 363.279 97.5804C363.74 92.4353 363.442 81.2966 362.735 76.4525C361.432 67.7496 358.39 58.0341 354.587 50.3164C350.106 41.285 345.054 34.1968 337.747 26.6707C330.577 19.3362 324.221 14.6016 315.774 10.2775C304.747 4.63972 293.23 1.21875 281.904 0.233518C277.586 -0.122262 268.894 -0.0675264 264.521 0.370357ZM282.067 7.89647C303.334 10.0312 322.917 20.1846 336.389 36.0852C352.224 54.7773 358.824 79.2167 354.669 103.93C352.333 117.942 346.846 130.34 338.1 141.451C335.629 144.598 328.974 151.248 325.634 153.903C313.194 163.892 298.418 170.132 282.828 171.938C278.156 172.486 268.894 172.513 264.386 171.966C238.909 168.955 215.849 154.423 203.138 133.35C195.451 120.651 191.594 107.378 191.132 92.0521C190.535 72.4568 196.782 53.1626 208.461 38.5483C222.014 21.5529 241.733 10.7427 263.978 8.06068C267.862 7.59543 278.129 7.51332 282.067 7.89647Z" fill="#F8BCB4"/>
<path d="M267.517 24.2654C267.168 24.7377 266.695 25.7656 266.496 26.5991C266.272 27.4048 265.475 29.7384 264.728 31.7943C261.741 39.8232 252.604 64.7434 250.438 70.7443C247.65 78.5232 247.7 78.412 247.326 78.412C247.152 78.412 246.555 77.6341 246.007 76.6618C243.542 72.4112 238.713 67.2993 235.252 65.2435C231.493 63.0209 226.912 61.993 223.153 62.5764C217.352 63.4377 212.722 65.938 209.162 70.2164C206.996 72.8001 206.025 74.9671 206 77.3563C206 78.9399 206.075 79.301 206.622 79.94C207.369 80.8568 208.564 81.468 209.635 81.468C211.128 81.468 212.05 80.6901 213.494 78.2453C215.485 74.8837 217.601 73.1613 221.012 72.1611C224.746 71.1054 228.157 71.411 231.194 73.0779C233.958 74.5782 237.816 79.2733 239.932 83.6906C241.003 85.9131 245.36 97.6926 250.189 111.333C251.808 115.917 255.517 126.03 258.405 133.837C261.318 141.615 264.081 149.228 264.579 150.756C266.023 155.173 267.093 157.368 268.139 157.979C269.01 158.507 269.234 158.507 273.118 158.173C275.359 157.979 277.624 157.701 278.122 157.562C279.392 157.201 280.039 156.145 281.284 152.311C281.856 150.561 283.45 146.116 284.794 142.449C286.163 138.782 287.931 133.892 288.752 131.614C289.574 129.308 291.491 124.057 293.01 119.946C294.528 115.806 296.57 110.222 297.565 107.527C298.561 104.805 299.482 102.582 299.607 102.582C299.756 102.582 300.528 103.61 301.35 104.832C304.088 109 307.872 112.528 311.781 114.528C315.017 116.195 316.76 116.612 320.768 116.584C324.054 116.584 324.403 116.529 326.668 115.667C330.851 114.084 335.431 110.667 337.772 107.416C339.738 104.666 340.859 102.027 340.983 99.804C341.108 97.5259 340.56 96.4146 338.917 95.5811C336.801 94.5532 335.207 95.4145 333.589 98.4427C332.17 101.165 328.734 104.971 326.793 105.999C321.39 108.889 315.316 107.611 310.636 102.638C308.619 100.499 306.602 97.387 305.258 94.3865C303.914 91.3583 297.615 74.0781 292.188 58.4092C288.429 47.6299 284.097 35.4337 283.201 33.1556C282.703 31.8776 281.906 29.7384 281.433 28.4049C279.641 23.2097 279.964 23.4042 273.243 23.4042H268.164L267.517 24.2654ZM274.438 39.7399C274.96 41.0734 276.603 45.2684 278.072 49.1023C279.541 52.9084 281.383 57.5757 282.155 59.4649C282.927 61.354 283.549 63.0487 283.549 63.2432C283.549 63.521 282.628 63.6599 280.139 63.7711C275.259 64.0489 263.434 64.0211 263.284 63.7433C263.16 63.521 265.774 56.1866 269.658 45.9074C270.554 43.5459 271.649 40.6289 272.097 39.4343C272.521 38.2674 273.019 37.2951 273.168 37.2951C273.342 37.2951 273.89 38.4063 274.438 39.7399ZM290.022 81.7181C291.516 85.8853 292.81 89.5247 292.885 89.8303C292.985 90.1637 291.989 93.2753 290.147 98.4982C288.528 102.943 287.134 106.749 287.01 106.888C286.786 107.222 259.152 107.138 258.853 106.805C258.629 106.555 253.675 92.9419 253.5 92.0806C253.401 91.6639 254.397 88.4968 256.438 82.746L259.5 74.0503L273.417 74.1059L287.308 74.1614L290.022 81.7181ZM282.628 116.806C282.877 116.806 283.126 116.945 283.201 117.14C283.45 117.834 273.666 144.81 273.193 144.81C273.018 144.81 272.421 143.588 271.848 142.088C271.251 140.615 268.836 134.476 266.471 128.447C264.081 122.418 262.139 117.251 262.139 116.945C262.139 116.417 262.313 116.417 272.172 116.612C277.674 116.751 282.379 116.834 282.628 116.806Z" fill="#F8BCB4"/>
<path d="M12.4281 352L27.1428 230.82H58.3035L73.0182 352H48.7822L47.2241 329.668H38.049L36.8372 352H12.4281ZM39.434 303.701H46.0123L44.2812 265.443H41.3382L39.434 303.701ZM80.051 352V230.82H109.654L117.444 284.658H118.482L125.926 230.82H155.702V352H133.197V298.161H132.159L125.407 352H110.346L103.595 298.161H102.556V352H80.051ZM166.101 352V230.82H196.396C202.051 230.82 207.129 232.147 211.63 234.801C216.247 237.34 219.882 240.803 222.537 245.188C225.306 249.574 226.691 254.594 226.691 260.249C226.691 263.25 226.057 266.366 224.787 269.597C223.518 272.713 221.729 275.483 219.421 277.907C217.112 280.33 214.343 282.004 211.111 282.927V284.658C215.843 286.505 219.594 289.506 222.364 293.66C225.249 297.815 226.691 302.085 226.691 306.471V321.705C226.691 327.36 225.306 332.496 222.537 337.112C219.882 341.613 216.247 345.249 211.63 348.018C207.129 350.673 202.051 352 196.396 352H166.101ZM191.895 268.732H193.973C195.819 268.732 197.377 268.039 198.647 266.654C200.032 265.154 200.724 263.308 200.724 261.115C200.724 258.922 200.032 257.075 198.647 255.575C197.377 254.075 195.819 253.325 193.973 253.325H191.895V268.732ZM191.895 329.668H193.107C195.185 329.668 196.973 328.514 198.474 326.206C199.974 323.898 200.724 321.128 200.724 317.896V309.933C200.724 306.586 199.974 303.816 198.474 301.624C196.973 299.315 195.185 298.161 193.107 298.161H191.895V329.668ZM235.415 352V230.82H261.901C268.133 230.82 273.846 232.378 279.04 235.494C284.233 238.494 288.33 242.591 291.331 247.785C294.447 252.863 296.005 258.576 296.005 264.923V285.178C296.005 288.178 295.255 292.102 293.754 296.95C292.254 301.681 289.427 305.951 285.272 309.76V312.357L296.005 352H270.038L262.767 318.589H261.209V352H235.415ZM261.209 296.257H262.594C264.671 296.257 266.402 295.68 267.787 294.526C269.288 293.256 270.038 290.14 270.038 285.178V264.404C270.038 259.557 269.288 256.498 267.787 255.229C266.402 253.959 264.671 253.325 262.594 253.325H261.209V296.257ZM333.333 353.731C327.793 353.731 322.715 352.404 318.099 349.75C313.482 346.98 309.789 343.344 307.019 338.843C304.365 334.227 303.038 329.091 303.038 323.436V259.384C303.038 253.729 304.365 248.65 307.019 244.149C309.789 239.533 313.482 235.898 318.099 233.243C322.715 230.473 327.793 229.089 333.333 229.089C338.872 229.089 343.951 230.473 348.567 233.243C353.183 235.898 356.819 239.533 359.473 244.149C362.243 248.65 363.628 253.729 363.628 259.384V323.436C363.628 329.091 362.243 334.227 359.473 338.843C356.819 343.344 353.183 346.98 348.567 349.75C343.951 352.404 338.872 353.731 333.333 353.731ZM333.333 330.88C334.602 330.88 335.641 330.476 336.449 329.668C337.257 328.745 337.661 327.706 337.661 326.552V256.094C337.661 254.825 337.257 253.786 336.449 252.978C335.641 252.055 334.602 251.593 333.333 251.593C332.063 251.593 330.967 252.055 330.044 252.978C329.236 253.786 328.832 254.825 328.832 256.094V326.552C328.832 327.706 329.236 328.745 330.044 329.668C330.967 330.476 332.063 330.88 333.333 330.88ZM401.125 353.731C395.585 353.731 390.507 352.404 385.891 349.75C381.274 346.98 377.581 343.344 374.811 338.843C372.157 334.227 370.83 329.091 370.83 323.436V309.587H396.624V324.302C396.624 325.456 397.028 326.552 397.836 327.591C398.759 328.514 399.855 328.976 401.125 328.976C402.394 328.976 403.491 328.514 404.414 327.591C405.337 326.552 405.799 325.456 405.799 324.302C405.799 323.263 405.684 322.397 405.453 321.705C405.222 320.897 404.703 319.858 403.895 318.589L383.121 284.658C381.621 282.119 379.889 279.465 377.927 276.695C375.965 273.81 374.292 270.982 372.907 268.212C371.522 265.327 370.83 262.615 370.83 260.076V259.384C370.83 253.729 372.157 248.65 374.811 244.149C377.581 239.533 381.274 235.898 385.891 233.243C390.507 230.473 395.585 229.089 401.125 229.089C406.78 229.089 411.858 230.473 416.359 233.243C420.975 235.898 424.611 239.533 427.265 244.149C430.035 248.65 431.42 253.729 431.42 259.384V271.675H405.799V258.345C405.799 257.075 405.337 255.979 404.414 255.056C403.491 254.132 402.394 253.671 401.125 253.671C399.971 253.671 398.932 254.132 398.009 255.056C397.085 255.979 396.624 257.075 396.624 258.345C396.624 259.153 396.739 259.845 396.97 260.422C397.316 260.884 397.778 261.634 398.355 262.673L419.821 296.776C422.476 301.047 425.072 305.317 427.611 309.587C430.15 313.742 431.42 318.127 431.42 322.744V323.436C431.42 329.091 430.035 334.227 427.265 338.843C424.611 343.344 420.975 346.98 416.359 349.75C411.858 352.404 406.78 353.731 401.125 353.731ZM437.438 352V230.82H463.579V352H437.438ZM473.955 352L488.669 230.82H519.83L534.545 352H510.309L508.751 329.668H499.576L498.364 352H473.955ZM500.961 303.701H507.539L505.808 265.443H502.865L500.961 303.701Z" fill="#F8BCB4"/>
</svg>
